PathFileType	4	(X/Y/Z)	1103211_Jog01.trc	
DataRate	CameraRate	NumFrames	NumMarkers	Units	OrigDataRate	OrigDataStartFrame	OrigNumFrames
300	300	4	69	mm	300	619	258
Frame#	Time	CLAV			STRN			RSHO			LSHO			C7			T10			RBAK			RASI			LASI			RPSI			LPSI			LGTR			RGTR			LHJC			RHJC			LANK			RANK			LHEE			RHEE			LMT5			RMT5			LTOE			RTOE			RELB			RWRA			RWRB			RFIN			LELB			LWRB			LWRA			LFIN			RFP1			RFP2			RFP3			RFM1			RFM2			RFM3			RFA1			RFA2			RFA3			LFP1			LFP2			LFP3			LFM1			LFM2			LFM3			LFA1			LFA2			LFA3			LKNE			RKNE			RTP1			RTP2			RTP3			RTA1			RTA2			RTA3			LTP1			LTP2			LTP3			LTA1			LFHD			LBHD			RFHD			RBHD			LUPA			LFRA			RUPA			RFRA			
		X1	Y1	Z1	X2	Y2	Z2	X3	Y3	Z3	X4	Y4	Z4	X5	Y5	Z5	X6	Y6	Z6	X7	Y7	Z7	X8	Y8	Z8	X9	Y9	Z9	X10	Y10	Z10	X11	Y11	Z11	X12	Y12	Z12	X13	Y13	Z13	X14	Y14	Z14	X15	Y15	Z15	X16	Y16	Z16	X17	Y17	Z17	X18	Y18	Z18	X19	Y19	Z19	X20	Y20	Z20	X21	Y21	Z21	X22	Y22	Z22	X23	Y23	Z23	X24	Y24	Z24	X25	Y25	Z25	X26	Y26	Z26	X27	Y27	Z27	X28	Y28	Z28	X29	Y29	Z29	X30	Y30	Z30	X31	Y31	Z31	X32	Y32	Z32	X33	Y33	Z33	X34	Y34	Z34	X35	Y35	Z35	X36	Y36	Z36	X37	Y37	Z37	X38	Y38	Z38	X39	Y39	Z39	X40	Y40	Z40	X41	Y41	Z41	X42	Y42	Z42	X43	Y43	Z43	X44	Y44	Z44	X45	Y45	Z45	X46	Y46	Z46	X47	Y47	Z47	X48	Y48	Z48	X49	Y49	Z49	X50	Y50	Z50	X51	Y51	Z51	X52	Y52	Z52	X53	Y53	Z53	X54	Y54	Z54	X55	Y55	Z55	X56	Y56	Z56	X57	Y57	Z57	X58	Y58	Z58	X59	Y59	Z59	X60	Y60	Z60	X61	Y61	Z61	X62	Y62	Z62	X63	Y63	Z63	X64	Y64	Z64	X65	Y65	Z65	X66	Y66	Z66	X67	Y67	Z67	X68	Y68	Z68	X69	Y69	Z69	

1	0.00000	221.29236	1382.45544	-15.20239	260.54810	1209.89758	-12.40674	115.69958	1424.94226	122.72197	190.73291	1432.62781	-195.46721	88.21399	1446.75049	-48.74866	32.12866	1163.09070	-62.02116	15.57312	1365.65857	24.57228	174.94629	957.84393	65.51680	180.48511	969.88458	-155.40739	0.00000	990.64984	0.00000	2.71545	986.63123	-96.42674	77.36865	888.75946	-215.30547	113.59729	890.58325	120.58403	99.25525	897.30994	-130.51244	91.84363	889.09888	28.08841	-310.93140	206.56070	-147.48036	305.40625	120.29375	48.17999	-367.00024	250.12146	-93.34892	247.23816	77.58445	-3.53473	-300.63049	77.37014	-167.47447	424.12256	103.20364	92.70743	-240.25977	68.59643	-103.86305	461.65924	148.55841	31.16927	-110.60876	1251.33948	218.79021	12.18420	1043.56714	175.15216	-36.23450	1013.83038	222.68875	59.13342	991.18616	211.83809	130.79822	1168.31604	-347.61230	316.95032	1153.92896	-183.48912	282.23828	1214.24695	-172.85316	360.07837	1236.98450	-161.65593	140.33533	796.95392	125.05663	180.39465	709.44110	117.39738	214.71802	624.10608	98.48238	182.97888	869.23175	112.42137	225.66895	784.23828	106.50443	262.51257	701.43701	90.62511	231.96448	847.69470	54.18091	270.71277	758.33240	44.37085	294.16895	673.69769	30.75978	39.30591	795.80341	-221.98805	-1.00354	693.77032	-205.23552	-32.00403	624.28632	-186.87102	118.36499	829.86298	-211.15254	80.11304	730.11658	-204.02034	47.30737	646.06384	-188.52635	154.74072	763.82129	-161.22472	118.10144	668.27777	-138.96391	69.47913	589.72137	-123.38982	-79.24353	537.26422	-172.99275	244.64368	523.03979	78.14260	249.48779	409.71283	91.29770	260.05383	304.32938	78.13062	277.63831	220.39066	60.30696	306.15771	449.33484	29.32550	313.67004	369.24973	23.46687	319.80640	284.19064	17.64832	-151.91479	430.33582	-184.95842	-197.85242	364.97812	-175.85362	-244.06506	292.61755	-162.75072	-75.23059	438.84869	-120.04866	233.30469	1641.57629	-100.24409	119.24744	1624.58691	-123.64043	222.05908	1636.68799	46.88470	83.60181	1622.83264	40.07767	189.44409	1333.65369	-279.90277	254.91406	1156.36365	-259.22327	-47.52588	1311.12317	200.06509	-90.55298	1160.57446	237.60602	
2	0.00333	230.32935	1382.92078	-14.48198	269.72729	1210.39221	-11.68057	124.60474	1425.39612	123.18382	199.93250	1433.06860	-194.67046	97.28491	1447.06775	-48.24173	41.36316	1163.64160	-61.67271	24.74866	1366.07788	24.94814	184.33862	957.94336	65.88258	190.34338	970.85754	-154.91957	9.61072	991.44623	0.14635	12.48499	987.58350	-96.21248	87.08667	889.97174	-215.32542	122.96045	890.49097	120.67418	108.93030	898.33618	-130.50993	101.18384	889.50183	28.04141	-305.47168	210.08597	-148.45866	320.55151	120.27468	47.73172	-360.42273	254.94823	-94.18617	262.79944	76.29204	-3.61761	-297.88306	80.38655	-168.17128	439.96948	105.60314	91.53716	-237.38574	70.18931	-104.87416	476.15735	152.10457	29.85941	-102.27979	1252.58264	218.69095	20.90063	1044.95178	175.20796	-27.58826	1015.04742	222.56705	67.90637	992.62079	211.94141	139.88953	1169.55457	-347.76886	325.36743	1154.80066	-182.77013	290.59485	1215.13892	-172.36760	368.28821	1237.93530	-160.46419	149.18384	796.62054	125.09450	188.80933	708.74951	117.51188	222.80908	623.22589	98.41660	192.28149	868.76343	112.80285	234.59436	783.31915	106.90189	270.95093	700.28772	90.73930	241.55957	846.94061	54.74174	279.60291	757.27429	44.74887	302.40344	672.52222	30.78409	48.57581	797.13165	-222.04842	7.83337	695.10931	-205.46550	-23.46362	625.71332	-187.07341	127.76477	830.80377	-211.06056	89.07922	731.14661	-204.06242	55.92578	647.17700	-188.73897	163.84900	764.51709	-161.23518	126.91785	668.94482	-139.25813	78.01733	590.46002	-123.82310	-71.19177	538.94531	-173.19920	253.25244	522.45477	77.84553	259.89001	409.29254	91.03831	272.08740	303.98648	77.85969	291.00427	220.27155	60.02904	315.51685	449.67813	28.61093	324.34253	369.83362	22.80984	331.83545	284.79547	17.01521	-144.79614	432.65424	-185.43816	-191.20251	367.59421	-176.53105	-237.92725	295.56534	-163.59511	-67.83215	440.20850	-120.63475	242.24146	1641.91577	-99.48189	128.20496	1624.93811	-122.91499	230.88220	1636.97473	47.62346	92.43152	1623.13135	40.72801	198.79480	1334.52795	-279.35455	263.58594	1157.36145	-258.82751	-39.00842	1312.30432	200.15732	-82.19531	1161.85913	237.54129	
3	0.00667	239.37097	1383.26563	-13.76820	278.89282	1210.76050	-10.97658	133.51709	1425.72522	123.65922	209.12537	1433.39050	-193.89214	106.35120	1447.27759	-47.72920	50.57507	1164.07300	-61.29460	33.90442	1366.36816	25.35349	193.69873	957.87323	66.22427	200.15002	971.72552	-154.44310	19.18481	992.08789	0.29745	22.20801	988.40247	-95.98781	96.79089	891.04395	-215.34001	132.31995	890.22729	120.75983	118.56067	899.24884	-130.53572	110.49292	889.74420	27.96082	-299.96716	213.60353	-149.42973	335.17004	120.27124	47.24081	-353.79919	259.68649	-94.99538	277.83337	75.10177	-3.78035	-295.02893	83.49415	-168.92207	455.19116	107.88536	90.38889	-234.42322	71.88545	-105.95238	490.10510	155.43561	28.59119	-93.90332	1253.65637	218.64755	29.67542	1046.18286	175.28416	-18.86328	1016.10675	222.48257	76.75439	993.91174	212.05502	148.90698	1170.68335	-347.92480	333.75330	1155.45154	-182.11217	298.94397	1215.81763	-171.90727	376.50317	1238.63721	-159.29967	158.07080	796.13751	125.14809	197.32861	707.94354	117.65092	231.04724	622.25244	98.36708	201.58386	868.14099	113.16007	243.56152	782.29272	107.27000	279.48193	699.05756	90.81753	251.11731	846.04950	55.25357	288.49976	756.11292	45.07336	310.68896	671.26648	30.75403	57.89172	798.28052	-222.06889	16.80286	696.23999	-205.65178	-14.73071	626.90570	-187.26143	137.17493	831.62250	-210.95058	98.13916	732.02917	-204.07774	64.71448	648.11115	-188.92387	173.01196	765.11328	-161.23067	135.88086	669.49298	-139.52885	86.77271	591.04163	-124.23714	-62.86768	540.36908	-173.38631	261.97180	521.81219	77.54497	270.22644	408.85828	90.75858	283.89563	303.64871	77.56030	304.01270	220.16113	59.71674	324.85840	449.92398	27.88657	334.87622	370.32983	22.13855	343.59851	285.32611	16.35951	-137.44531	434.77972	-185.90413	-184.37756	370.07709	-177.18755	-231.68115	298.43918	-164.42329	-60.22314	441.33429	-121.20592	251.17859	1642.15417	-98.72295	137.15540	1625.18811	-122.19164	239.70740	1637.16467	48.35866	101.26270	1623.32959	41.37791	208.10010	1335.27075	-278.81494	272.20532	1158.17932	-258.47156	-30.46082	1313.33057	200.29279	-73.77307	1162.97644	237.52467	
4	0.01000	248.41626	1383.49084	-13.06142	288.04456	1211.00305	-10.29526	142.43628	1425.92871	124.14877	218.31226	1433.59473	-193.13225	115.41260	1447.38135	-47.21048	59.76379	1164.38330	-60.88770	43.03918	1366.52893	25.78813	203.02563	957.63831	66.54263	209.90344	972.48499	-153.97841	28.71997	992.57080	0.45351	31.88245	989.08209	-95.75395	106.47827	891.96857	-215.34764	141.67395	889.79797	120.84145	128.14673	900.04309	-130.58653	119.77209	889.82684	27.84979	-294.41541	217.11252	-150.39262	349.24744	120.26086	46.70393	-347.13074	264.33484	-95.77464	292.32068	73.99648	-4.02760	-292.06348	86.69015	-169.73009	469.77838	110.01540	89.26086	-231.36938	73.68439	-107.09889	503.50122	158.51865	27.36345	-85.47986	1254.55688	218.66066	38.50867	1047.25647	175.38219	-10.06030	1017.00488	222.43642	85.67639	995.05469	212.18076	157.84937	1171.70215	-348.07733	342.11011	1155.87964	-181.51595	307.28845	1216.28088	-171.47047	384.72693	1239.08667	-158.16414	166.99878	795.51184	125.21819	205.95544	707.03180	117.81075	239.43591	621.19568	98.32963	210.88660	867.37445	113.49277	252.57239	781.17126	107.60766	288.10925	697.75940	90.86076	260.63489	845.03369	55.71373	297.40625	754.86273	45.34369	319.03418	669.94659	30.67226	67.25122	799.24219	-222.04909	25.90173	697.15527	-205.79393	-5.80811	627.85541	-187.43510	146.59399	832.31342	-210.82222	107.29077	732.75854	-204.06508	73.67139	648.86017	-189.07921	182.22913	765.60602	-161.21001	144.99011	669.91718	-139.77437	95.74487	591.46002	-124.63042	-54.27356	541.52795	-173.55522	270.80383	521.11566	77.24031	280.49219	408.40323	90.45713	295.46924	303.30350	77.22915	316.65161	220.04146	59.36540	334.18555	450.06949	27.15672	345.27136	370.72855	21.45522	355.09216	285.76834	15.68135	-129.86560	436.70892	-186.35674	-177.38049	372.42523	-177.82289	-225.32874	301.23898	-165.23454	-52.40759	442.22076	-121.76311	260.11572	1642.29199	-97.96779	146.09937	1625.33752	-121.47090	248.53503	1637.25854	49.08986	110.09558	1623.42798	42.02730	217.35938	1335.88318	-278.28387	280.77319	1158.81641	-258.15515	-21.88342	1314.19885	200.47218	-65.28674	1163.92236	237.55685	
